<svg xmlns="http://www.w3.org/2000/svg" viewBox="0 0 800 600" role="img">
  <defs>
    <radialGradient id="fondo" cx="35%" cy="28%" r="85%">
      <stop offset="0%" stop-color="#FDF3DC"/>
      <stop offset="100%" stop-color="#F3E2BA"/>
    </radialGradient>
    <linearGradient id="loza" x1="0%" y1="0%" x2="100%" y2="100%">
      <stop offset="0%" stop-color="#FFFFFF"/>
      <stop offset="100%" stop-color="#EDE6DA"/>
    </linearGradient>
  </defs>

  <rect width="800" height="600" fill="url(#fondo)"/>

  <!-- Manteles y sombra bajo el plato -->
  <ellipse cx="415" cy="325" rx="228" ry="222" fill="#1E1A17" opacity="0.10"/>
  <circle cx="400" cy="300" r="222" fill="url(#loza)"/>
  <circle cx="400" cy="300" r="222" fill="none" stroke="#D9CFC0" stroke-width="3"/>
  <circle cx="400" cy="300" r="176" fill="none" stroke="#E6DDD0" stroke-width="8"/>

  <!-- Comida -->
  <polygon points="534.0,300.0 518.0,356.8 483.5,404.8 429.2,427.7 376.6,402.4 333.9,382.9 304.5,346.0 285.0,300.0 282.9,243.6 332.0,214.8 371.7,176.2 428.7,174.2 477.9,202.3 518.0,243.2" fill="#F5C518"/>
  <ellipse cx="376.6" cy="361.1" rx="18.9" ry="15.9" fill="#F7E9A0" transform="rotate(40 376.6 361.1)"/>
  <ellipse cx="469.0" cy="299.9" rx="20.4" ry="19.3" fill="#F7E9A0" transform="rotate(130 469.0 299.9)"/>
  <ellipse cx="455.8" cy="281.6" rx="17.6" ry="12.7" fill="#F7E9A0" transform="rotate(9 455.8 281.6)"/>
  <ellipse cx="427.1" cy="271.5" rx="21.5" ry="20.7" fill="#F7E9A0" transform="rotate(108 427.1 271.5)"/>
  <ellipse cx="444.2" cy="264.3" rx="18.5" ry="13.1" fill="#F7E9A0" transform="rotate(6 444.2 264.3)"/>
  <ellipse cx="408.3" cy="316.8" rx="18.1" ry="13.7" fill="#F7E9A0" transform="rotate(131 408.3 316.8)"/>
  <ellipse cx="391.0" cy="282.5" rx="21.1" ry="19.5" fill="#F7E9A0" transform="rotate(134 391.0 282.5)"/>
  <ellipse cx="468.6" cy="254.4" rx="20.3" ry="15.3" fill="#F7E9A0" transform="rotate(114 468.6 254.4)"/>
  <ellipse cx="443.1" cy="369.1" rx="19.7" ry="15.7" fill="#F7E9A0" transform="rotate(135 443.1 369.1)"/>
  <ellipse cx="400.0" cy="330.1" rx="11.0" ry="9.0" fill="#5E9E52" transform="rotate(90 400.0 330.1)"/>
  <ellipse cx="374.1" cy="258.3" rx="13.4" ry="10.1" fill="#5E9E52" transform="rotate(142 374.1 258.3)"/>
  <ellipse cx="391.4" cy="248.2" rx="9.3" ry="6.9" fill="#5E9E52" transform="rotate(179 391.4 248.2)"/>
  <ellipse cx="448.2" cy="218.5" rx="11.7" ry="10.7" fill="#5E9E52" transform="rotate(122 448.2 218.5)"/>
  <ellipse cx="362.2" cy="396.2" rx="12.2" ry="9.9" fill="#5E9E52" transform="rotate(132 362.2 396.2)"/>
  <ellipse cx="333.6" cy="296.9" rx="10.4" ry="9.4" fill="#5E9E52" transform="rotate(125 333.6 296.9)"/>
  <ellipse cx="299.4" cy="292.5" rx="11.7" ry="7.6" fill="#5E9E52" transform="rotate(87 299.4 292.5)"/>
  <ellipse cx="385.2" cy="203.1" rx="9.1" ry="8.3" fill="#5E9E52" transform="rotate(15 385.2 203.1)"/>
  <ellipse cx="395.3" cy="297.6" rx="11.6" ry="10.2" fill="#5E9E52" transform="rotate(27 395.3 297.6)"/>
  <ellipse cx="400.4" cy="285.3" rx="9.6" ry="9.0" fill="#5E9E52" transform="rotate(15 400.4 285.3)"/>
  <ellipse cx="331.5" cy="336.1" rx="8.2" ry="6.2" fill="#FFFFFF" transform="rotate(44 331.5 336.1)"/>
  <ellipse cx="400.0" cy="302.5" rx="8.6" ry="5.5" fill="#FFFFFF" transform="rotate(10 400.0 302.5)"/>
  <ellipse cx="399.7" cy="297.7" rx="9.3" ry="8.6" fill="#FFFFFF" transform="rotate(40 399.7 297.7)"/>
  <ellipse cx="394.6" cy="243.8" rx="8.0" ry="6.8" fill="#FFFFFF" transform="rotate(63 394.6 243.8)"/>
  <ellipse cx="402.3" cy="303.2" rx="9.7" ry="8.3" fill="#FFFFFF" transform="rotate(28 402.3 303.2)"/>
  <ellipse cx="388.2" cy="351.4" rx="9.5" ry="7.9" fill="#FFFFFF" transform="rotate(154 388.2 351.4)"/>
  <ellipse cx="393.9" cy="202.8" rx="11.8" ry="11.2" fill="#FFFFFF" transform="rotate(180 393.9 202.8)"/>
  <ellipse cx="459.0" cy="385.1" rx="4.3" ry="3.8" fill="#C1121F" transform="rotate(26 459.0 385.1)"/>
  <ellipse cx="484.2" cy="312.9" rx="6.8" ry="5.6" fill="#C1121F" transform="rotate(100 484.2 312.9)"/>
  <ellipse cx="364.7" cy="302.9" rx="6.6" ry="5.0" fill="#C1121F" transform="rotate(67 364.7 302.9)"/>
  <ellipse cx="364.4" cy="272.0" rx="4.1" ry="3.4" fill="#C1121F" transform="rotate(35 364.4 272.0)"/>
  <ellipse cx="386.9" cy="276.0" rx="4.4" ry="3.0" fill="#C1121F" transform="rotate(116 386.9 276.0)"/>
  <ellipse cx="363.7" cy="258.8" rx="7.0" ry="6.8" fill="#C1121F" transform="rotate(63 363.7 258.8)"/>
  <ellipse cx="405.3" cy="347.7" rx="4.5" ry="3.8" fill="#1E1A17" transform="rotate(159 405.3 347.7)"/>
  <ellipse cx="417.4" cy="234.9" rx="4.7" ry="4.2" fill="#1E1A17" transform="rotate(71 417.4 234.9)"/>
  <ellipse cx="399.5" cy="299.9" rx="4.1" ry="3.2" fill="#1E1A17" transform="rotate(28 399.5 299.9)"/>
  <ellipse cx="390.5" cy="299.3" rx="4.2" ry="2.6" fill="#1E1A17" transform="rotate(59 390.5 299.3)"/>
  <ellipse cx="402.1" cy="301.6" rx="5.3" ry="4.2" fill="#1E1A17" transform="rotate(137 402.1 301.6)"/>
</svg>
