<svg xmlns="http://www.w3.org/2000/svg" viewBox="0 0 800 600" role="img">
  <defs>
    <radialGradient id="fondo" cx="35%" cy="28%" r="85%">
      <stop offset="0%" stop-color="#E9F2F6"/>
      <stop offset="100%" stop-color="#CBDDE6"/>
    </radialGradient>
    <linearGradient id="loza" x1="0%" y1="0%" x2="100%" y2="100%">
      <stop offset="0%" stop-color="#FFFFFF"/>
      <stop offset="100%" stop-color="#EDE6DA"/>
    </linearGradient>
  </defs>

  <rect width="800" height="600" fill="url(#fondo)"/>

  <!-- Manteles y sombra bajo el plato -->
  <ellipse cx="415" cy="325" rx="228" ry="222" fill="#1E1A17" opacity="0.10"/>
  <circle cx="400" cy="300" r="222" fill="url(#loza)"/>
  <circle cx="400" cy="300" r="222" fill="none" stroke="#D9CFC0" stroke-width="3"/>
  <circle cx="400" cy="300" r="176" fill="none" stroke="#E6DDD0" stroke-width="8"/>

  <!-- Comida -->
  <circle cx="400" cy="300" r="152" fill="#F5E9C8" opacity="0.55"/>
  <polygon points="508.0,300.0 509.9,352.9 481.7,402.4 428.7,425.8 371.5,424.8 333.9,382.9 299.1,348.6 293.0,300.0 292.8,248.4 320.2,199.9 373.7,185.0 426.5,184.0 477.3,203.1 504.5,249.7" fill="#F7F1E2"/>
  <ellipse cx="402.4" cy="290.2" rx="12.3" ry="11.5" fill="#FFFFFF" transform="rotate(110 402.4 290.2)"/>
  <ellipse cx="335.3" cy="248.2" rx="19.0" ry="13.7" fill="#FFFFFF" transform="rotate(58 335.3 248.2)"/>
  <ellipse cx="390.7" cy="294.0" rx="15.2" ry="9.5" fill="#FFFFFF" transform="rotate(166 390.7 294.0)"/>
  <ellipse cx="302.0" cy="273.9" rx="15.8" ry="11.1" fill="#FFFFFF" transform="rotate(108 302.0 273.9)"/>
  <ellipse cx="391.4" cy="243.7" rx="19.6" ry="19.2" fill="#FFFFFF" transform="rotate(141 391.4 243.7)"/>
  <ellipse cx="402.6" cy="324.8" rx="14.2" ry="11.3" fill="#FFFFFF" transform="rotate(74 402.6 324.8)"/>
  <ellipse cx="440.2" cy="280.0" rx="21.2" ry="20.5" fill="#FFFFFF" transform="rotate(25 440.2 280.0)"/>
  <ellipse cx="442.0" cy="398.6" rx="20.6" ry="13.7" fill="#FFFFFF" transform="rotate(85 442.0 398.6)"/>
  <ellipse cx="483.3" cy="235.9" rx="17.0" ry="16.8" fill="#FFFFFF" transform="rotate(129 483.3 235.9)"/>
  <ellipse cx="434.9" cy="236.6" rx="15.0" ry="12.7" fill="#FFFFFF" transform="rotate(127 434.9 236.6)"/>
  <ellipse cx="431.0" cy="255.1" rx="17.9" ry="11.3" fill="#FFFFFF" transform="rotate(62 431.0 255.1)"/>
  <ellipse cx="398.3" cy="256.4" rx="18.6" ry="14.2" fill="#FFFFFF" transform="rotate(179 398.3 256.4)"/>
  <ellipse cx="412.9" cy="221.3" rx="12.9" ry="11.2" fill="#FFFFFF" transform="rotate(27 412.9 221.3)"/>
  <ellipse cx="410.0" cy="244.6" rx="15.9" ry="12.8" fill="#FFFFFF" transform="rotate(7 410.0 244.6)"/>
  <ellipse cx="367.3" cy="306.4" rx="20.5" ry="17.5" fill="#FFFFFF" transform="rotate(148 367.3 306.4)"/>
  <ellipse cx="385.6" cy="311.4" rx="17.0" ry="16.9" fill="#FFFFFF" transform="rotate(51 385.6 311.4)"/>
  <ellipse cx="310.0" cy="277.1" rx="7.2" ry="5.8" fill="#7B4B8A" transform="rotate(147 310.0 277.1)"/>
  <ellipse cx="340.6" cy="378.3" rx="9.3" ry="7.9" fill="#7B4B8A" transform="rotate(1 340.6 378.3)"/>
  <ellipse cx="331.1" cy="361.8" rx="10.8" ry="10.5" fill="#7B4B8A" transform="rotate(131 331.1 361.8)"/>
  <ellipse cx="420.3" cy="247.8" rx="8.8" ry="6.9" fill="#7B4B8A" transform="rotate(14 420.3 247.8)"/>
  <ellipse cx="360.9" cy="304.7" rx="8.8" ry="8.6" fill="#7B4B8A" transform="rotate(105 360.9 304.7)"/>
  <ellipse cx="361.6" cy="303.6" rx="7.7" ry="6.4" fill="#7B4B8A" transform="rotate(159 361.6 303.6)"/>
  <ellipse cx="408.1" cy="265.2" rx="9.0" ry="8.3" fill="#7B4B8A" transform="rotate(162 408.1 265.2)"/>
  <ellipse cx="427.9" cy="356.6" rx="10.3" ry="9.5" fill="#7B4B8A" transform="rotate(65 427.9 356.6)"/>
  <ellipse cx="499.8" cy="320.6" rx="6.4" ry="6.0" fill="#7B4B8A" transform="rotate(115 499.8 320.6)"/>
  <ellipse cx="481.3" cy="307.5" rx="7.2" ry="4.8" fill="#7B4B8A" transform="rotate(159 481.3 307.5)"/>
  <ellipse cx="412.5" cy="328.7" rx="6.8" ry="4.9" fill="#7B4B8A" transform="rotate(43 412.5 328.7)"/>
  <ellipse cx="361.3" cy="241.7" rx="7.5" ry="6.6" fill="#7B4B8A" transform="rotate(127 361.3 241.7)"/>
  <ellipse cx="397.5" cy="300.4" rx="8.9" ry="7.0" fill="#F0C419" transform="rotate(48 397.5 300.4)"/>
  <ellipse cx="398.6" cy="327.3" rx="10.7" ry="10.6" fill="#F0C419" transform="rotate(155 398.6 327.3)"/>
  <ellipse cx="304.2" cy="343.9" rx="8.1" ry="6.3" fill="#F0C419" transform="rotate(9 304.2 343.9)"/>
  <ellipse cx="396.6" cy="283.0" rx="10.5" ry="9.2" fill="#F0C419" transform="rotate(139 396.6 283.0)"/>
  <ellipse cx="452.1" cy="208.3" rx="10.2" ry="9.0" fill="#F0C419" transform="rotate(115 452.1 208.3)"/>
  <ellipse cx="411.7" cy="369.0" rx="9.0" ry="7.5" fill="#F0C419" transform="rotate(82 411.7 369.0)"/>
  <ellipse cx="375.3" cy="261.2" rx="10.7" ry="7.1" fill="#F0C419" transform="rotate(54 375.3 261.2)"/>
  <ellipse cx="423.5" cy="276.7" rx="11.3" ry="8.3" fill="#F0C419" transform="rotate(76 423.5 276.7)"/>
  <ellipse cx="398.3" cy="255.1" rx="8.3" ry="5.1" fill="#F0C419" transform="rotate(9 398.3 255.1)"/>
  <ellipse cx="380.2" cy="287.3" rx="11.5" ry="9.1" fill="#F0C419" transform="rotate(180 380.2 287.3)"/>
  <ellipse cx="397.1" cy="297.2" rx="11.2" ry="7.4" fill="#E08A3C" transform="rotate(146 397.1 297.2)"/>
  <ellipse cx="378.6" cy="258.5" rx="11.2" ry="7.4" fill="#E08A3C" transform="rotate(170 378.6 258.5)"/>
  <ellipse cx="358.0" cy="334.7" rx="10.1" ry="8.6" fill="#E08A3C" transform="rotate(102 358.0 334.7)"/>
  <ellipse cx="401.6" cy="298.8" rx="11.2" ry="8.3" fill="#E08A3C" transform="rotate(144 401.6 298.8)"/>
  <ellipse cx="407.5" cy="264.1" rx="11.3" ry="9.9" fill="#E08A3C" transform="rotate(97 407.5 264.1)"/>
  <ellipse cx="433.8" cy="284.7" rx="15.3" ry="13.5" fill="#E08A3C" transform="rotate(124 433.8 284.7)"/>
  <ellipse cx="406.5" cy="242.9" rx="10.4" ry="6.6" fill="#E08A3C" transform="rotate(34 406.5 242.9)"/>
  <ellipse cx="447.6" cy="386.1" rx="4.9" ry="4.4" fill="#4E8C4A" transform="rotate(153 447.6 386.1)"/>
  <ellipse cx="372.4" cy="299.0" rx="5.4" ry="3.6" fill="#4E8C4A" transform="rotate(60 372.4 299.0)"/>
  <ellipse cx="443.9" cy="251.7" rx="7.8" ry="7.5" fill="#4E8C4A" transform="rotate(34 443.9 251.7)"/>
  <ellipse cx="327.1" cy="259.9" rx="5.3" ry="4.1" fill="#4E8C4A" transform="rotate(97 327.1 259.9)"/>
  <ellipse cx="456.8" cy="236.6" rx="7.3" ry="5.5" fill="#4E8C4A" transform="rotate(157 456.8 236.6)"/>
  <ellipse cx="314.7" cy="247.8" rx="4.3" ry="3.6" fill="#4E8C4A" transform="rotate(144 314.7 247.8)"/>
  <ellipse cx="425.1" cy="314.2" rx="7.6" ry="6.3" fill="#4E8C4A" transform="rotate(29 425.1 314.2)"/>
  <ellipse cx="371.1" cy="307.9" rx="7.1" ry="6.7" fill="#4E8C4A" transform="rotate(3 371.1 307.9)"/>
  <ellipse cx="398.8" cy="299.0" rx="5.7" ry="5.3" fill="#4E8C4A" transform="rotate(10 398.8 299.0)"/>
</svg>
